<svg width="55" height="62" viewBox="0 0 55 62" fill="none" xmlns="http://www.w3.org/2000/svg">
<g clip-path="url(#clip0_2417_298)">
<path d="M53.1271 28.9879C49.8884 28.8591 46.7195 29.4004 43.742 30.5571C43.6828 26.9414 43.0439 23.397 41.8363 19.9989C41.639 19.4441 41.0842 19.1759 40.5952 19.4C38.7091 20.2664 36.9426 21.3608 35.3095 22.6693C33.349 18.2729 30.7929 14.2666 27.6966 10.7474C27.3241 10.3242 26.7208 10.3242 26.3486 10.7476C23.251 14.2696 20.695 18.2753 18.736 22.6676C17.1038 21.36 15.3381 20.2661 13.4525 19.4C12.9641 19.1758 12.4088 19.4439 12.2115 19.9989C11.0019 23.4025 10.3627 26.9528 10.3052 30.5746C7.36838 29.4271 4.20356 28.8578 0.920088 28.9879C0.393867 29.0089 -0.0177149 29.5107 0.000652647 30.1089C0.493305 46.148 12.1252 58.8139 26.1321 58.8139C26.4278 58.8139 26.726 58.8078 27.0237 58.7966C27.3221 58.808 27.619 58.8139 27.9154 58.8139C41.9211 58.8139 53.5542 46.1471 54.0468 30.1089C54.0649 29.5107 53.6533 29.0088 53.1271 28.9879ZM13.6325 21.844C16.3186 23.2188 18.7258 25.1068 20.7991 27.4668C23.025 29.9961 24.7706 32.9521 25.9952 36.2563C25.1783 38.6556 24.6424 41.1356 24.3925 43.6656C21.5824 38.2402 17.3055 33.9291 12.2088 31.4139C12.1775 28.1462 12.6553 24.935 13.6325 21.844ZM1.95923 31.1374C8.0768 31.1671 13.8736 33.7745 18.3733 38.5456C22.8734 43.3168 25.5655 49.7087 26.018 56.646C13.4069 56.5785 2.89798 45.4365 1.95923 31.1374ZM22.1473 25.9341C21.5495 25.2537 20.9255 24.6106 20.2774 24.0038C22.0235 20.0004 24.288 16.3281 27.0229 13.0654C29.7563 16.3258 32.0205 19.9983 33.768 24.0055C33.1206 24.6117 32.497 25.2539 31.8997 25.9336C29.9116 28.1928 28.2779 30.7695 27.0235 33.6147C25.7702 30.7709 24.1365 28.1943 22.1473 25.9341ZM27.0198 50.6741C26.7719 49.6702 26.4793 48.6884 26.1441 47.7315C26.1378 47.5 26.1347 47.2553 26.1347 46.9869C26.1347 43.4346 26.7311 39.9564 27.9072 36.6485C29.139 33.1827 30.9358 30.0934 33.2479 27.4663C35.3222 25.1064 37.7297 23.2186 40.4156 21.844C41.3904 24.9283 41.868 28.1322 41.8391 31.3924C39.1239 32.7279 36.6016 34.5979 34.3739 36.96C30.8079 40.7408 28.296 45.4661 27.0198 50.6741ZM28.0293 56.6459C28.4819 49.7087 31.1737 43.3168 35.6739 38.5454C40.1741 33.774 45.9699 31.1667 52.0881 31.1373C51.1491 45.4373 40.6415 56.5798 28.0293 56.6459Z" fill="#3C7232"/>
<path d="M1.48713 25.821C2.01364 25.821 2.44045 25.3357 2.44045 24.7371C2.44045 24.1385 2.01364 23.6532 1.48713 23.6532C0.960629 23.6532 0.533813 24.1385 0.533813 24.7371C0.533813 25.3357 0.960629 25.821 1.48713 25.821Z" fill="#3C7232"/>
<path d="M13.0957 13.7871C13.6222 13.7871 14.049 13.3018 14.049 12.7032C14.049 12.1045 13.6222 11.6193 13.0957 11.6193C12.5691 11.6193 12.1423 12.1045 12.1423 12.7032C12.1423 13.3018 12.5691 13.7871 13.0957 13.7871Z" fill="#3C7232"/>
<path d="M27.0227 4.80479C27.5492 4.80479 27.976 4.3195 27.976 3.72087C27.976 3.12225 27.5492 2.63696 27.0227 2.63696C26.4962 2.63696 26.0694 3.12225 26.0694 3.72087C26.0694 4.3195 26.4962 4.80479 27.0227 4.80479Z" fill="#3C7232"/>
<path d="M40.9522 13.7871C41.4787 13.7871 41.9055 13.3018 41.9055 12.7032C41.9055 12.1045 41.4787 11.6193 40.9522 11.6193C40.4257 11.6193 39.9989 12.1045 39.9989 12.7032C39.9989 13.3018 40.4257 13.7871 40.9522 13.7871Z" fill="#3C7232"/>
<path d="M52.5584 25.821C53.0849 25.821 53.5117 25.3357 53.5117 24.7371C53.5117 24.1385 53.0849 23.6532 52.5584 23.6532C52.0319 23.6532 51.605 24.1385 51.605 24.7371C51.605 25.3357 52.0319 25.821 52.5584 25.821Z" fill="#3C7232"/>
</g>
<defs>
<clipPath id="clip0_2417_298">
<rect width="54.0472" height="61.4509" fill="white"/>
</clipPath>
</defs>
</svg>
