<svg width="40" height="40" viewBox="0 0 40 40" fill="none" xmlns="http://www.w3.org/2000/svg">
<path d="M20 33.3334C17.7594 33.328 15.5483 32.8207 13.5294 31.8487C11.5105 30.8767 9.73503 29.4648 8.33336 27.7167C8.05489 27.3719 7.92478 26.9306 7.97166 26.4899C8.01855 26.0492 8.23858 25.6452 8.58336 25.3667C8.92814 25.0882 9.36943 24.9581 9.81014 25.005C10.2509 25.0519 10.6549 25.2719 10.9334 25.6167C12.0265 26.9793 13.4118 28.079 14.9868 28.8346C16.5618 29.5903 18.2864 29.9826 20.0334 29.9826C21.7803 29.9826 23.5049 29.5903 25.0799 28.8346C26.655 28.079 28.0402 26.9793 29.1334 25.6167C29.4314 25.3562 29.8125 25.2102 30.2084 25.2051C30.6043 25.1999 30.989 25.3358 31.2938 25.5885C31.5986 25.8411 31.8035 26.194 31.8718 26.584C31.9402 26.9739 31.8674 27.3755 31.6667 27.7167C30.265 29.4648 28.4895 30.8767 26.4706 31.8487C24.4517 32.8207 22.2407 33.328 20 33.3334Z" fill="#F9FBEA"/>
<path d="M20 3.33337C17.7899 3.33337 15.6703 4.21135 14.1075 5.77415C12.5447 7.33695 11.6667 9.45657 11.6667 11.6667V18.3334C11.6667 20.5435 12.5447 22.6631 14.1075 24.2259C15.6703 25.7887 17.7899 26.6667 20 26.6667C22.2102 26.6667 24.3298 25.7887 25.8926 24.2259C27.4554 22.6631 28.3334 20.5435 28.3334 18.3334V11.6667C28.3334 9.45657 27.4554 7.33695 25.8926 5.77415C24.3298 4.21135 22.2102 3.33337 20 3.33337Z" fill="#F9FBEA"/>
<path d="M20 36.6667C19.558 36.6667 19.134 36.4911 18.8215 36.1785C18.5089 35.866 18.3333 35.442 18.3333 35V31.6667C18.3333 31.2246 18.5089 30.8007 18.8215 30.4882C19.134 30.1756 19.558 30 20 30C20.442 30 20.8659 30.1756 21.1785 30.4882C21.4911 30.8007 21.6666 31.2246 21.6666 31.6667V35C21.6666 35.442 21.4911 35.866 21.1785 36.1785C20.8659 36.4911 20.442 36.6667 20 36.6667Z" fill="#F9FBEA"/>
</svg>
